<?xml version="1.0" encoding="UTF-8" standalone="no"?>
<svg
   width="11.2208in"
   height="8.62392in"
   viewBox="0 0 808 621"
   id="svg3336"
   version="1.1"
   inkscape:version="1.3.2 (091e20e, 2023-11-25, custom)"
   sodipodi:docname="Vira_black.svg"
   xmlns:inkscape="http://www.inkscape.org/namespaces/inkscape"
   xmlns:sodipodi="http://sodipodi.sourceforge.net/DTD/sodipodi-0.dtd"
   xmlns="http://www.w3.org/2000/svg"
   xmlns:svg="http://www.w3.org/2000/svg"
   xmlns:rdf="http://www.w3.org/1999/02/22-rdf-syntax-ns#"
   xmlns:cc="http://creativecommons.org/ns#"
   xmlns:dc="http://purl.org/dc/elements/1.1/">
  <metadata
     id="metadata3343">
    <rdf:RDF>
      <cc:Work
         rdf:about="">
        <dc:format>image/svg+xml</dc:format>
        <dc:type
           rdf:resource="http://purl.org/dc/dcmitype/StillImage" />
      </cc:Work>
    </rdf:RDF>
  </metadata>
  <defs
     id="defs3341" />
  <sodipodi:namedview
     pagecolor="#ffffff"
     bordercolor="#666666"
     borderopacity="1"
     objecttolerance="10"
     gridtolerance="10"
     guidetolerance="10"
     inkscape:pageopacity="0"
     inkscape:pageshadow="2"
     inkscape:window-width="3440"
     inkscape:window-height="1369"
     id="namedview3339"
     showgrid="false"
     inkscape:zoom="0.99999999"
     inkscape:cx="-37"
     inkscape:cy="397.5"
     inkscape:window-x="-8"
     inkscape:window-y="-8"
     inkscape:window-maximized="1"
     inkscape:current-layer="svg3336"
     showguides="true"
     inkscape:guide-bbox="true"
     inkscape:showpageshadow="2"
     inkscape:pagecheckerboard="0"
     inkscape:deskcolor="#d1d1d1"
     inkscape:document-units="in">
    <sodipodi:guide
       position="440.15904,292.2131"
       orientation="1,0"
       id="guide4482"
       inkscape:locked="false" />
    <sodipodi:guide
       position="449.77691,209.04693"
       orientation="0,1"
       id="guide4484"
       inkscape:locked="false" />
  </sodipodi:namedview>
  <g
     id="g15">
    <path
       style="display:inline;fill:#ff0000"
       d="m 165.1728,618.90591 c -1.65256,-1.04957 -7.98154,-15.78254 -14.10341,-32.83078 -2.73571,-7.61842 -30.71346,-84.72668 -62.172772,-171.35168 -31.459313,-86.625 -60.912473,-167.9625 -65.451466,-180.75 l -8.252715,-23.25 22.609691,0.009 c 12.435331,0.005 24.955633,0.2905 27.822895,0.63494 l 5.213203,0.62624 4.466612,10.61506 c 4.03593,9.59154 25.211322,68.62547 88.101822,245.61507 26.1846,73.69002 36.4017,101.75567 37.42401,102.80112 0.43086,0.44061 2.94245,-5.40939 5.5813,-13 2.63885,-7.59062 29.87276,-84.45112 60.5198,-170.80112 30.64704,-86.35 56.51062,-159.475 57.47461,-162.5 2.97985,-9.35068 5.399,-12.8894 9.3135,-13.62377 3.18637,-0.59777 48.30176,0.42162 49.00215,1.10721 0.6493,0.63558 -138.5317,384.03579 -144.29742,397.49436 -1.99757,4.66279 -4.16763,8.8184 -4.82236,9.23469 -1.58444,1.0074 -66.84108,0.97876 -68.42945,-0.03 v -3e-5 z"
       id="path4172"
       inkscape:connector-curvature="0"
       transform="matrix(0.80010141,0,0,0.80010141,0,-4.8834314e-4)"
       inkscape:label="V" />
    <g
       id="g13"
       inkscape:label="i"
       style="fill:#000000">
      <path
         style="fill:#000000"
         d="m 387.73339,498.94825 c -0.12964,-0.12963 -0.23571,-3.70936 -0.23571,-7.95495 l 0,-7.71925 9.54595,0 9.54594,0 0,7.95495 0,7.95495 -9.31024,0 c -5.12063,0 -9.41631,-0.10606 -9.54594,-0.2357 z"
         id="path4422"
         inkscape:connector-curvature="0"
         transform="matrix(0.80010144,0,0,0.80010144,0,-4.8834314e-4)"
         inkscape:label="dot" />
      <path
         style="fill:#000000;fill-opacity:1;stroke:#ffffff"
         d="m 390.00159,567.66568 0,-50 7.5,0 7.5,0 0,50 0,50 -7.5,0 -7.5,0 0,-50 z"
         id="path4316"
         inkscape:connector-curvature="0"
         transform="matrix(0.80010144,0,0,0.80010144,0,-4.8834314e-4)"
         inkscape:label="I" />
    </g>
    <path
       style="fill:#000000"
       d="m 506.00159,567.16568 v -50.5 h 8 8 v 7.5 c 0,4.125 0.28407,7.5 0.63127,7.5 0.3472,0 5.39468,-2.8125 11.21662,-6.25 6.57737,-3.88354 11.9232,-6.34895 14.11872,-6.51132 1.94336,-0.14373 7.24589,-0.5155 11.78339,-0.82615 l 8.25,-0.56482 v 7.93998 7.93999 l -12.75,-0.11384 c -13.98904,-0.1249 -13.91194,-0.14665 -26.23471,7.40146 -3.56658,2.18465 -6.79746,4.76243 -7.17971,5.7284 -0.38226,0.96596 -0.72664,17.3938 -0.7653,36.5063 l -0.0703,34.75 h -7.5 -7.5 v -50.5 z"
       id="path4320"
       inkscape:connector-curvature="0"
       transform="matrix(0.80010141,0,0,0.80010141,0,-4.8834314e-4)"
       sodipodi:nodetypes="ccccssssscccssssccccc"
       inkscape:label="r" />
    <path
       style="display:inline;fill:#000000;fill-opacity:1;stroke:#ffffff"
       d="m 634.32581,618.07859 c -6.0879,-2.23074 -12.6594,-8.47099 -15.40157,-14.62523 -1.97902,-4.44153 -2.36138,-6.96792 -2.38935,-15.78768 -0.0308,-9.7103 0.17561,-10.85539 2.7444,-15.22535 7.2247,-12.29043 23.03235,-18.32819 50.96095,-19.46464 l 14.73865,-0.59973 -0.60842,-4.10514 c -2.06595,-13.93928 -10.25203,-19.7309 -27.88087,-19.72561 -6.79166,0.002 -10.98003,0.61613 -17,2.49251 -12.61212,3.93111 -11.69612,4.22948 -13.14598,-4.28209 -0.69423,-4.07553 -1.05801,-7.74049 -0.8084,-8.14436 1.05255,-1.70307 30.01175,-4.2487 40.46636,-3.55716 16.02764,1.06018 24.93858,5.65344 30.52072,15.73231 l 2.97928,5.37926 0.30178,40.75 0.30179,40.75 h -7.55179 -7.55178 v -5 c 0,-2.88422 -0.4527,-5 -1.06982,-5 -0.5884,0 -3.07764,1.38141 -5.53164,3.06981 -9.99032,6.87352 -14.82469,8.36932 -27.89853,8.63204 -8.78619,0.17657 -13.11835,-0.16864 -16.17578,-1.28894 z m 32.79185,-15.0153 c 6.32008,-1.84783 13.76651,-6.3542 15.86837,-9.60308 1.07703,-1.66476 1.58449,-6.10497 1.84892,-16.17776 l 0.36446,-13.88324 -2.54419,0.63855 c -1.3993,0.35121 -7.98101,1.08275 -14.62601,1.62566 -18.2397,1.49022 -25.66133,3.7872 -31.21401,9.66068 -6.68516,7.07138 -6.43915,18.81451 0.52873,25.23886 5.49939,5.07041 17.52837,6.08058 29.77373,2.50033 z"
       id="path4322"
       inkscape:connector-curvature="0"
       transform="matrix(0.80010141,0,0,0.80010141,0,-4.8834314e-4)"
       inkscape:label="a" />
  </g>
  <g
     id="g14"
     inkscape:label="bird"
     style="display:inline">
    <path
       style="fill:#2a42cb;fill-opacity:1;stroke:#2a42cb;stroke-opacity:1"
       d="m 539.35477,761.41089 c -6.27955,-3.17209 -10.86052,-9.83136 -18.68551,-27.16276 -6.86056,-15.1953 -15.18508,-28.58724 -17.77002,-28.58724 -1.70971,0 -2.42043,2.39455 -7.0989,23.91763 -3.90041,17.94363 -6.62557,26.29275 -9.53,29.19717 -2.25455,2.25455 -6.64001,2.44566 -9.53825,0.41566 -2.66577,-1.86718 -5.88818,-8.71512 -6.83753,-14.53046 -1.13032,-6.92388 -1.70869,-7.47143 -4.83323,-4.5757 -1.48525,1.37648 -4.42863,3.02046 -6.54085,3.6533 -7.68304,2.30189 -11.01573,-2.38615 -11.86951,-16.69666 l -0.55968,-9.38094 h -3.27128 c -1.79921,0 -4.00521,-0.28163 -4.90221,-0.62584 -2.28399,-0.87645 -7.09926,-10.81987 -9.72166,-20.07498 -4.99684,-17.63515 -1.18862,-63.79321 6.51357,-78.94861 l 2.45116,-4.82308 1.45723,3.48625 c 2.1382,5.11539 4.07178,6.35305 8.75525,5.60413 3.85965,-0.61718 4.0237,-0.52514 5.54231,3.10941 2.19779,5.26005 5.32135,8.27272 8.57723,8.27272 2.0846,0 4.29543,-1.58902 9.04355,-6.5 3.45644,-3.575 6.88956,-6.5 7.62915,-6.5 0.7396,0 4.12906,0.95189 7.53214,2.11531 7.55152,2.58166 10.27173,1.82166 14.53254,-4.06022 l 2.91193,-4.0198 0.62228,3.11141 0.62228,3.11141 8.24919,-0.70601 c 4.53706,-0.3883 8.66613,-1.11081 9.17571,-1.60558 0.7719,-0.74943 2.20496,-36.8153 2.52103,-63.44652 0.12939,-10.90215 0.24497,-10.94015 12.92739,-4.25 5.9951,3.1625 11.13283,5.75 11.41717,5.75 0.28433,0 1.88745,-2.42835 3.56248,-5.39634 1.67502,-2.96798 4.31542,-6.30059 5.86755,-7.40581 4.20898,-2.99706 12.42227,-5.01533 25.27786,-6.2116 25.28487,-2.35286 35.30105,-4.32708 39.20278,-7.72698 1.54496,-1.34626 1.7621,-1.2185 2.34294,1.37848 0.35209,1.57424 0.84712,3.6291 1.10005,4.56636 0.78781,2.9193 -9.53125,8.43677 -20.14577,10.77169 -2.2,0.48395 -10.075,1.37503 -17.5,1.98018 -21.19523,1.72746 -37,5.07017 -37,7.82551 0,2.24874 9.66598,11.76462 27.5,27.07298 20.57327,17.65967 30.54083,27.48618 36.77598,36.25557 10.33017,14.5288 16.62282,31.7135 15.16719,41.42033 -1.30324,8.69069 -6.07769,13.04683 -15.52614,14.16586 -2.7365,0.3241 -5.22201,0.98822 -5.52336,1.47582 -0.30135,0.4876 1.04385,4.59256 2.98934,9.12213 6.85776,15.96654 6.87971,23.63393 0.0847,29.60002 -4.25562,3.7365 -5.06921,3.94347 -19.14347,4.87005 l -11.17575,0.73575 3.02826,7 c 3.20854,7.41673 4.05531,13.66794 2.11434,15.60891 -2.6125,2.6125 -10.51761,2.21891 -20.13252,-1.00238 -5.0998,-1.70859 -9.63006,-3.10653 -10.06725,-3.10653 -0.43719,0 -1.07205,3.59425 -1.41082,7.98722 -1.15309,14.95301 -6.17197,19.08647 -16.71087,13.76278 z"
       id="path4406"
       inkscape:connector-curvature="0"
       transform="matrix(0.80010141,0,0,0.80010141,0,-4.8834314e-4)" />
    <path
       style="fill:#2a42cb;fill-opacity:1;stroke:#2a42cb;stroke-width:0.707107;stroke-opacity:1"
       d="m 459.32544,626.70165 c -1.20633,-1.33298 -3.09869,-8.44322 -3.13025,-11.76142 -0.0239,-2.51711 -1.07512,-2.48231 -5.01027,0.16585 -2.04603,1.37688 -4.20785,2.40946 -4.80405,2.29464 -1.53549,-0.2957 -3.37899,-3.74303 -4.84808,-9.06583 -1.14085,-4.13349 -1.26224,-8.31358 -1.26224,-43.4642 0,-41.92998 0.10238,-43.4759 3.95496,-59.72016 7.39601,-31.18496 19.75137,-54.95995 40.32561,-77.59714 12.98296,-14.28474 19.00549,-23.46521 19.00549,-28.97108 0,-3.69845 -0.31486,-4.36477 -4.96626,-10.51014 -3.97434,-5.25082 -4.49663,-8.09058 -2.05817,-11.19057 1.36209,-1.73163 1.58981,-1.79048 3.36869,-0.87058 1.04931,0.54262 4.01113,3.03874 6.58181,5.54693 4.63629,4.5236 4.71212,4.56342 9.40791,4.94035 3.55679,0.28551 5.14656,0.76761 6.39321,1.93878 3.70214,3.47798 3.08242,6.59576 -4.30008,21.63344 -3.66435,7.46406 -5.23472,11.45335 -5.23472,13.29801 0,2.47668 0.20204,2.71906 3.35875,4.02926 6.44194,2.67374 6.64765,2.86591 8.07318,7.54203 0.75087,2.463 1.75409,4.41941 2.26625,4.41941 0.50543,0 2.40897,-1.16084 4.23007,-2.57965 1.8211,-1.41881 3.50985,-2.38089 3.75277,-2.13797 0.24293,0.24292 -0.26472,2.11971 -1.1281,4.17064 -2.28613,5.43064 -2.83455,13.3624 -2.85609,41.30748 -0.0197,25.51691 -0.74521,37.54099 -2.52181,41.79298 -1.64075,3.92686 -3.61319,1.90393 -3.79083,-3.88785 l -0.0705,-2.29809 H 513.80965 503.5566 v 40.96887 40.96886 l -3.18198,0.47717 c -3.63217,0.54467 -3.67222,0.67489 -2.37422,7.7194 1.95376,10.60347 -2.53243,14.95154 -11.31481,10.96644 -6.10179,-2.76876 -8.6703,-1.91158 -18.13078,6.05071 -1.94454,1.63661 -4.53104,3.48199 -5.74778,4.10085 -2.08452,1.06024 -2.28553,1.04422 -3.4816,-0.27742 z"
       id="path4408"
       inkscape:connector-curvature="0"
       transform="matrix(0.80010141,0,0,0.80010141,0,-4.8834314e-4)" />
    <path
       style="fill:#2a42cb;fill-opacity:1;stroke:#2a42cb;stroke-width:0.707107;stroke-opacity:1"
       d="m 541.03327,762.69128 c -2.07078,-0.72779 -4.59857,-2.56324 -7.23845,-5.25589 -3.54144,-3.61224 -5.12843,-6.31365 -12.49932,-21.2765 -4.64356,-9.4264 -9.77162,-19.20721 -11.39568,-21.73512 -3.10602,-4.83461 -6.20376,-8.48528 -7.20011,-8.48528 -1.03374,0 -2.00307,3.44221 -6.27232,22.27386 -2.29237,10.11163 -4.88761,20.44156 -5.76721,22.95539 -3.13344,8.9552 -8.89033,12.32612 -13.88016,8.12746 -3.32844,-2.8007 -4.97136,-6.04721 -6.80248,-13.4421 -0.93042,-3.75743 -1.82985,-6.96987 -1.99873,-7.13875 -0.16889,-0.16889 -1.30657,0.53395 -2.52818,1.56187 -2.40546,2.02406 -8.38368,4.55314 -10.76269,4.55314 -2.23548,0 -6.04239,-4.24965 -7.00607,-7.82088 -0.46591,-1.7266 -1.05127,-6.63945 -1.30079,-10.91745 l -0.45367,-7.77817 -4.14004,-0.368 c -3.28545,-0.29204 -4.43775,-0.72993 -5.58226,-2.12132 -2.20549,-2.68125 -5.91304,-10.94192 -8.08628,-18.01678 -1.92904,-6.27986 -1.95457,-6.61157 -1.93227,-25.10229 0.019,-15.71026 0.27266,-20.33806 1.57001,-28.63782 1.93711,-12.39271 4.40518,-21.66594 7.28442,-27.3697 l 2.23023,-4.41805 1.151,2.94388 c 0.63306,1.61913 1.8198,3.83931 2.63722,4.93372 1.39231,1.86413 1.77296,1.9781 6.02548,1.80407 l 4.53928,-0.18575 2.03668,4.28848 c 2.39595,5.04498 4.64229,7.04319 7.91778,7.04319 2.02962,0 3.36029,-0.93476 9.05934,-6.36396 3.67415,-3.50018 7.16471,-6.36396 7.75678,-6.36396 0.59208,0 3.51344,0.7955 6.49191,1.76777 2.97847,0.97227 6.20074,1.76776 7.16059,1.76776 2.77363,0 5.70972,-2.16257 8.53597,-6.28715 l 2.6198,-3.82329 0.66094,3.35219 0.66093,3.35218 6.11978,-0.48436 c 3.36589,-0.2664 7.20504,-0.70547 8.53146,-0.97571 2.37975,-0.48484 2.41779,-0.55181 2.87374,-5.06044 0.25414,-2.51301 0.82134,-17.77432 1.26045,-33.91404 0.86671,-31.85604 0.99612,-33.61202 2.52033,-34.19691 0.56233,-0.21579 5.81842,1.98088 11.68021,4.88147 5.8618,2.9006 10.79265,5.27381 10.95745,5.27381 0.1648,0 1.45587,-1.82964 2.86904,-4.06586 6.85359,-10.84526 10.37864,-12.31722 36.01138,-15.03723 22.30439,-2.36683 28.54891,-3.58231 33.96986,-6.61213 l 3.12917,-1.74893 0.77976,2.89583 c 1.51115,5.61194 1.32557,6.25993 -2.52345,8.81139 -7.58772,5.02979 -14.45101,6.75319 -34.64823,8.7003 -21.74275,2.09611 -35.38183,4.93143 -36.22729,7.53101 -0.4806,1.47774 8.96247,10.71083 28.44911,27.8165 27.18156,23.86038 34.61538,31.9812 42.51312,46.44198 5.90178,10.80616 9.45152,23.53536 8.39127,30.09058 -1.5234,9.41866 -6.19157,13.58651 -16.82767,15.02416 -2.04503,0.27642 -3.56295,0.88434 -3.80898,1.52549 -0.22497,0.58625 1.23584,5.16077 3.24623,10.1656 5.93632,14.7783 5.77431,21.8517 -0.63784,27.84953 -4.11039,3.84479 -5.96608,4.35969 -18.97721,5.26568 -5.57849,0.38845 -10.29852,0.86208 -10.48897,1.05252 -0.19043,0.19044 0.84539,3.316 2.30185,6.9457 1.45645,3.6297 2.79406,8.08715 2.97246,9.90545 0.28232,2.87737 0.0774,3.55294 -1.58017,5.21054 -1.83863,1.83864 -2.11682,1.89306 -8.03984,1.57305 -4.479,-0.24198 -8.22653,-1.02094 -13.8816,-2.88539 -4.26046,-1.40466 -7.83422,-2.466 -7.94169,-2.35852 -0.10747,0.10747 -0.66277,3.75253 -1.23399,8.10014 -1.1845,9.0153 -2.54106,12.4635 -5.64885,14.35863 -2.59968,1.58528 -5.30331,1.61439 -9.60254,0.10341 z"
       id="path4410"
       inkscape:connector-curvature="0"
       transform="matrix(0.80010141,0,0,0.80010141,0,-4.8834314e-4)" />
    <path
       style="fill:#2a42cb;fill-opacity:1;stroke:#2a42cb;stroke-width:0.707107;stroke-opacity:1"
       d="m 650.03566,510.62542 c 2.5084,-3.52272 69.81595,-70.75981 80.14867,-80.06477 20.76792,-18.7022 40.40084,-31.70704 70.90763,-46.9692 5.55304,-2.77812 11.39951,-5.87372 12.99215,-6.8791 2.64938,-1.67249 2.79986,-1.92382 1.76901,-2.95467 -1.69419,-1.69419 -8.65074,-1.96583 -13.58782,-0.53059 -4.9943,1.45189 -9.61021,3.73985 -22.5835,11.19395 -5.44472,3.12839 -15.30886,8.31094 -21.92031,11.51678 -28.98832,14.0562 -44.03745,15.67552 -62.22539,6.6956 -11.0013,-5.43167 -16.88563,-11.09575 -36.77566,-35.39908 -12.74108,-15.56813 -17.28395,-20.38091 -27.80977,-29.46207 -18.25929,-15.75322 -33.04243,-31.01054 -39.91599,-41.19633 -5.21227,-7.72395 -13.24163,-24.93587 -17.83713,-38.23604 -4.27856,-12.3829 -5.29252,-14.74652 -7.10252,-16.55652 -2.69981,-2.69981 -3.19329,1.40346 -1.09996,9.14611 2.14779,7.94408 2.26728,9.53417 1.49279,19.86486 -1.81432,24.20071 -1.05171,31.28656 4.63363,43.05343 3.51273,7.27028 7.99281,13.37855 20.51167,27.96629 16.0128,18.65905 20.17212,25.41919 20.69533,33.63608 0.56094,8.80935 -3.46963,13.72464 -18.13706,22.11817 -9.19532,5.26207 -13.4217,7.03439 -22.24204,9.32713 -8.88746,2.31018 -15.98848,5.54772 -21.62022,9.85721 -2.08206,1.59322 -3.92828,2.75405 -4.10272,2.57962 -0.5368,-0.53681 6.31621,-8.32829 12.23824,-13.91417 5.2615,-4.96284 8.78023,-7.32819 24.52451,-16.48579 11.21031,-6.52042 14.76309,-10.7988 14.86576,-17.90185 0.0424,-2.92898 -0.52797,-4.80683 -2.90174,-9.55443 -1.62494,-3.24993 -4.3371,-7.97725 -6.02702,-10.50515 -1.68992,-2.52791 -6.72391,-10.00556 -11.18665,-16.61701 -13.3651,-19.80009 -13.28909,-19.5193 -13.8676,-51.23553 l -0.41864,-22.95125 -2.71479,-4.97947 c -3.34541,-6.13613 -3.44293,-8.63198 -0.61337,-15.69847 1.16673,-2.91376 2.12132,-5.90182 2.12132,-6.64013 0,-3.65155 -9.58919,-23.71728 -18.04114,-37.75172 C 530.23855,171.90549 521.98172,161.51487 500.02224,139.49612 486.03096,125.46707 479.85058,119.82447 472.44391,114.31749 461.09339,105.8782 438.81476,90.957586 426.48197,83.535526 409.57077,73.358108 358.7892,47.569968 336.39725,37.788271 321.12476,31.116635 312.65215,25.263135 314.94665,22.96863 c 1.07801,-1.078008 3.0941,-1.011625 9.56498,0.314941 17.56879,3.601701 50.87972,17.1527 86.76754,35.297323 50.82371,25.696102 81.59027,47.448446 114.26276,80.785216 25.45407,25.97158 39.28173,44.9214 56.80251,77.84376 7.57323,14.23044 10.53829,20.34212 25.57083,52.70716 11.0886,23.87375 13.80461,28.586 20.00806,34.71388 7.7166,7.6226 14.09785,10.74636 23.42148,11.46535 9.53336,0.73517 18.60519,-1.10149 51.47724,-10.42193 23.45408,-6.65009 32.08732,-8.3673 44.6864,-8.88846 18.20652,-0.75309 32.2298,2.03191 46.6186,9.2584 18.22691,9.15411 27.86756,17.66222 51.98857,45.88119 9.154,10.7092 13.67667,15.43053 16.52928,17.25531 7.69957,4.92536 17.94543,9.09734 63.76156,25.96287 48.05074,17.68811 63.95824,24.64914 68.94651,30.17056 1.41967,1.5714 2.43068,3.00762 2.2467,3.1916 -0.98381,0.98382 -27.87299,-3.94588 -45.38381,-8.32037 -25.20715,-6.29716 -46.22264,-12.97538 -79.19596,-25.16658 -28.42424,-10.50927 -27.82652,-10.36591 -41.36575,-9.92131 -12.32818,0.40484 -16.18559,1.32407 -27.22361,6.48752 -18.63069,8.7152 -70.12503,41.2073 -86.97413,54.87928 -6.33841,5.14321 -18.44398,17.65708 -38.97763,40.29227 -21.19207,23.36099 -24.11582,26.14173 -27.48607,26.14173 H 648.4172 Z M 793.8579,342.17947 c 0.92958,-1.41872 0.97418,-2.00761 0.25435,-3.35876 -1.21359,-2.27798 -2.79764,-3.35732 -4.96592,-3.38369 -2.258,-0.0274 -5.57544,2.44891 -5.57544,4.16189 0,3.86443 8.11237,5.89947 10.28701,2.58056 z"
       id="path4412"
       inkscape:connector-curvature="0"
       transform="matrix(0.80010141,0,0,0.80010141,0,-4.8834314e-4)" />
    <path
       style="fill:#2a42cb;fill-opacity:1;stroke:#2a42cb;stroke-width:0.707107;stroke-opacity:1"
       d="m 354.17131,202.65524 c 0.52193,-3.40295 0.83181,-7.8434 0.68861,-9.86767 -0.27307,-3.86014 -1.42903,-5.90334 -8.71906,-15.4114 l -3.25292,-4.24264 0.50419,-9.1752 0.50419,-9.17519 -10.31609,-9.98345 c -10.39509,-10.05991 -11.85145,-12.07998 -12.78074,-17.72776 -0.51213,-3.11253 -1.83638,-4.66376 -6.39395,-7.48993 -7.47807,-4.63721 -11.11241,-11.23983 -11.19654,-20.341126 -0.0751,-8.127393 2.26805,-15.760829 6.81621,-22.205259 l 1.44871,-2.052717 -1.88132,-1.482817 c -1.03473,-0.81555 -9.24148,-5.278322 -18.23722,-9.91727 -23.16447,-11.945508 -26.79314,-15.596829 -24.82501,-24.979942 1.91574,-9.133369 6.25455,-15.204212 12.16628,-17.023027 3.42748,-1.054503 12.7288,-1.85566 12.72398,-1.095962 -0.007,1.038266 -1.40105,6.096266 -2.56364,9.298811 -1.21951,3.359336 -3.74093,5.111466 -7.35572,5.111466 -1.44885,0 -2.11937,0.305822 -1.93792,0.883884 0.43798,1.395365 7.13182,5.579581 17.87163,11.171292 18.24169,9.497575 20.56278,11.830413 20.42011,20.523389 -0.0627,3.82392 -0.70187,6.205556 -3.60532,13.435029 -1.94097,4.83295 -3.74085,9.66497 -3.99973,10.737828 -0.75684,3.136478 1.18954,5.7775 7.13384,9.679871 6.83103,4.4845 15.60509,7.93203 34.91405,13.7185 16.93322,5.07451 16.31685,4.58918 13.31103,10.48108 -2.15725,4.22854 -2.8008,4.24332 -21.74503,0.49924 -5.96569,-1.17905 -11.01202,-1.97839 -11.21407,-1.77635 -0.62441,0.62442 2.26209,4.09668 8.22674,9.89623 l 5.71657,5.55834 -0.18391,9.64445 c -0.21721,11.39071 0.305,12.89648 7.2685,20.95817 6.78002,7.84926 8.11398,10.48628 8.04818,15.9099 -0.0332,2.73258 -0.8216,7.23052 -1.94454,11.09321 -1.03883,3.57336 -1.88879,6.96074 -1.88879,7.5275 0,0.56677 1.35234,1.69989 3.00521,2.51804 l 3.0052,1.48755 -5.34035,5.6e-4 -5.34034,5.5e-4 z"
       id="path4414"
       inkscape:connector-curvature="0"
       transform="matrix(0.80010141,0,0,0.80010141,0,-4.8834314e-4)" />
    <path
       style="fill:#2a42cb;fill-opacity:1;stroke:#2a42cb;stroke-width:0.707107;stroke-opacity:1"
       d="m 489.5429,372.10028 c -5.98579,-0.99573 -10.33846,-3.24931 -14.23647,-7.3709 -4.01896,-4.24945 -4.04461,-4.38638 -2.60905,-13.93278 0.51151,-3.40158 0.7698,-6.34491 0.57398,-6.54074 -0.19583,-0.19582 -1.33715,-0.36303 -2.53629,-0.37157 -2.91799,-0.0208 -7.40218,-2.16988 -9.74056,-4.66828 -2.47612,-2.64555 -3.3613,-6.73629 -3.38256,-15.63204 -0.0166,-6.9337 -0.0834,-7.24711 -1.60827,-7.54094 -7.81311,-1.50549 -10.2365,-2.21131 -13.93087,-4.05741 -7.82526,-3.91032 -11.24064,-10.09171 -9.91059,-17.93683 1.02606,-6.05208 1.17116,-5.8092 -4.44281,-7.43679 -21.07922,-6.11121 -28.53476,-10.11125 -30.23179,-16.21992 -1.06476,-3.83274 -0.76611,-10.64414 0.61599,-14.04936 l 1.24111,-3.05783 0.84788,3.6732 c 2.49322,10.80123 7.72911,14.44398 30.79717,21.42649 5.78502,1.75107 10.82371,3.48927 11.19711,3.86267 0.86461,0.86461 -0.81582,4.18309 -4.72291,9.32667 -1.62479,2.139 -3.19395,4.29611 -3.48702,4.79359 -0.58077,0.98582 10.41304,6.50949 19.97314,10.03519 l 5.19425,1.91561 0.25009,5.59316 c 0.45003,10.065 3.12058,16.76952 7.93657,19.92507 1.30313,0.85385 3.30992,1.2218 6.66952,1.22289 3.79555,10e-4 4.80572,0.2241 4.80644,1.06047 5e-4,0.5824 -0.98579,4.02064 -2.19176,7.64053 -3.10163,9.31 -2.05585,13.11018 4.55761,16.56152 2.56067,1.33633 4.11994,1.5383 12.13075,1.57126 5.05581,0.0208 12.61302,-0.23882 16.79379,-0.57696 8.39926,-0.67933 8.43919,-0.65736 6.44539,3.54428 -1.4683,3.09419 -3.44144,4.08898 -12.42943,6.26651 -7.76041,1.88012 -8.72964,1.94486 -14.57041,0.97324 z"
       id="path4416"
       inkscape:connector-curvature="0"
       transform="matrix(0.80010141,0,0,0.80010141,0,-4.8834314e-4)" />
  </g>
</svg>
